<?xml version="1.0" encoding="utf-8"?>
<!-- Generator: Adobe Illustrator 23.0.0, SVG Export Plug-In . SVG Version: 6.00 Build 0)  -->
<svg version="1.1" id="Layer_1" xmlns="http://www.w3.org/2000/svg" xmlns:xlink="http://www.w3.org/1999/xlink" x="0px" y="0px"
	 viewBox="0 0 388 370" style="enable-background:new 0 0 388 370;" xml:space="preserve">
<style type="text/css">
	.st0{fill:#26FF00;}
</style>
<path class="st0" d="M343.4,210.7c0.9,0,1.8-0.1,2.6-0.4c1.3-0.4,2.7-0.2,4,0.3c0.5,0.2,1.1,0.3,1.7,0.4c3.2,0.1,5.9-2.8,6-6.4
	s-2.9-8.5-5.5-6.8c-3.3,2.1-6.6-0.8-8.2-0.1c-6.1,2.8-9.2,5.1-9.3,9.7C334.3,211.9,339,210.5,343.4,210.7z"/>
<path class="st0" d="M353.2,184.4c-1.3,0.3-2.5,0.7-3.5,1.1c-0.7,0.3-1.4,0.4-2.1,0.4c-0.9,0-1.8,0.1-2.8,0.3
	c-3.3,0.7-5.6,2.4-5.4,3.8c0.3,1.4,3.2,1.9,6.4,1.2c0,0,0,0,0,0c1-0.2,2-0.3,3.1-0.2c1.5,0.2,3.5,0.1,5.6-0.4c4.5-1,7.8-3.2,7.5-4.9
	C361.6,184,357.7,183.4,353.2,184.4z"/>
<path class="st0" d="M340.9,231.2c-3-0.7-5.4,1.2-8.7,0.7c-3.2-1.1-3.3-3.8-5.8-4.2c-11.6-2.2-10.1,9.7-13.6,11.4
	c-10.7,5.2-10.9,14.1-7.4,19.5c2.2,3.3,8.1,4.3,10.6,4.4c5.3,0.1,5.6-4.9,16.1-3.1c11.8,6.5,17.3-2.6,19.2-10.6
	C353.4,241.1,348.7,233.1,340.9,231.2z"/>
<path class="st0" d="M302.8,299.4c-5.4-13.4-11.5-8.5-19.3-9.8c-13-2.1-13.1-17.4-19.3-18.7c-7.2-1.5-14.8,5.6-16.9,15.9
	c-1.3,6.4-1.8,8.4-0.2,14.9c0.4,1.8,1.1,3.6,2.1,5.2c2.1,3.4,4.7,6.7,7.2,8.4c2,1.4,3.9,2.9,5.4,4.8c1.7,2.1,4.2,4.4,7.1,5
	c2,0.4,7.8,1.6,12.2-4.6c4.7-3.1,11.4,5.7,16.5-0.8C302.6,313,306,307.4,302.8,299.4z"/>
<path class="st0" d="M62.8,222.5c-3.4-3.5-8.2-1.1-11.3,1.9c0,0,0,0,0,0c-1,1-2.3,1.5-3.7,1.6c-2.6,0-5.2,1-7.2,2.9
	c-4.2,4.1-4.2,10.9,0,15.3s14.4,8.1,17.3-0.6c1-3,3.2-5.3,6-6.4C69.8,234.5,66.2,226,62.8,222.5z"/>
<path class="st0" d="M79.2,234.9c-2.8,1.7-3.4,2-4.4,4.1c-1.5,3.1-1.5,4.3-1.4,7.3c0.2,3.3,2.4,5.2,5.2,5.8c2.7,0.6,6.7-2,5.2-4.9
	c-0.4-0.8-1.4-2.4,0.2-6.2C85.2,238.2,81.5,233.6,79.2,234.9z"/>
<path class="st0" d="M60,208.9c-1.7,0-3.1,1.2-3.7,2.9c-0.3,0.8-0.7,1.5-1.3,2c-0.6,0.4-0.9,1-0.9,1.6c0,1.4,1.8,3,4,2.5
	c1.7-0.4,5-1,6-4.5C64.7,211.1,62.2,208.9,60,208.9z"/>
<path class="st0" d="M334.6,173.2c-1.7,0.4-2.8,1.8-3,3.6c-0.1,0.8-0.3,1.6-0.9,2.3c-0.5,0.6-0.7,1.2-0.6,1.8
	c0.3,1.4,2.5,2.5,4.5,1.6c1.6-0.7,4.7-2.1,4.9-5.7C339.7,174.2,336.8,172.7,334.6,173.2z"/>
<path class="st0" d="M134.3,39.8c0,0-38.1-8.9-39.9,48c-0.4,13.2-3.3,26.3-8.9,38.3c-5.5,11.9-18.1,45.6-8.8,75.2
	c14.7,46.7,129.6,98.3,199.6,49.1s38.1-135.3-31.3-141.2S173.2,40.6,134.3,39.8z"/>
</svg>
