<?xml version="1.0" encoding="utf-8"?>
<!-- Generator: Adobe Illustrator 23.0.0, SVG Export Plug-In . SVG Version: 6.00 Build 0)  -->
<svg version="1.1" id="Layer_1" xmlns="http://www.w3.org/2000/svg" xmlns:xlink="http://www.w3.org/1999/xlink" x="0px" y="0px"
	 viewBox="0 0 700 716" style="enable-background:new 0 0 700 716;" xml:space="preserve">
<style type="text/css">
	.st0{fill:url(#SVGID_1_);stroke:#1DFFF3;stroke-miterlimit:10;}
</style>
<linearGradient id="SVGID_1_" gradientUnits="userSpaceOnUse" x1="26" y1="356" x2="676" y2="356">
	<stop  offset="0.0204" style="stop-color:#91C318"/>
	<stop  offset="0.3112" style="stop-color:#19FF18"/>
	<stop  offset="0.7902" style="stop-color:#FFFF00"/>
</linearGradient>
<path class="st0" d="M26.5,705.5v-49h49v49H26.5z M75,657H27v48h48V657 M76,656v50H26v-50H76L76,656z M125.5,705.5v-49h-49v49H125.5
	z M125,657H77v48h48V657 M126,656v50H76v-50H126L126,656z M175.5,705.5v-49h-49v49H175.5z M175,657h-48v48h48V657 M176,656v50h-50
	v-50H176L176,656z M225.5,705.5v-49h-49v49H225.5z M225,657h-48v48h48V657 M226,656v50h-50v-50H226L226,656z M275.5,705.5v-49h-49
	v49H275.5z M275,657h-48v48h48V657 M276,656v50h-50v-50H276L276,656z M325.5,705.5v-49h-49v49H325.5z M325,657h-48v48h48V657
	 M326,656v50h-50v-50H326L326,656z M375.5,705.5v-49h-49v49H375.5z M375,657h-48v48h48V657 M376,656v50h-50v-50H376L376,656z
	 M425.5,705.5v-49h-49v49H425.5z M425,657h-48v48h48V657 M426,656v50h-50v-50H426L426,656z M475.5,705.5v-49h-49v49H475.5z M475,657
	h-48v48h48V657 M476,656v50h-50v-50H476L476,656z M525.5,705.5v-49h-49v49H525.5z M525,657h-48v48h48V657 M526,656v50h-50v-50H526
	L526,656z M575.5,705.5v-49h-49v49H575.5z M575,657h-48v48h48V657 M576,656v50h-50v-50H576L576,656z M625.5,705.5v-49h-49v49H625.5z
	 M625,657h-48v48h48V657 M626,656v50h-50v-50H626L626,656z M675.5,705.5v-49h-49v49H675.5z M675,657h-48v48h48V657 M676,656v50h-50
	v-50H676L676,656z M175.5,655.5v-49h-49v49H175.5z M175,607h-48v48h48V607 M176,606v50h-50v-50H176L176,606z M225.5,655.5v-49h-49
	v49H225.5z M225,607h-48v48h48V607 M226,606v50h-50v-50H226L226,606z M325.5,655.5v-49h-49v49H325.5z M325,607h-48v48h48V607
	 M326,606v50h-50v-50H326L326,606z M375.5,655.5v-49h-49v49H375.5z M375,607h-48v48h48V607 M376,606v50h-50v-50H376L376,606z
	 M425.5,655.5v-49h-49v49H425.5z M425,607h-48v48h48V607 M426,606v50h-50v-50H426L426,606z M475.5,655.5v-49h-49v49H475.5z M475,607
	h-48v48h48V607 M476,606v50h-50v-50H476L476,606z M525.5,655.5v-49h-49v49H525.5z M525,607h-48v48h48V607 M526,606v50h-50v-50H526
	L526,606z M575.5,655.5v-49h-49v49H575.5z M575,607h-48v48h48V607 M576,606v50h-50v-50H576L576,606z M625.5,655.5v-49h-49v49H625.5z
	 M625,607h-48v48h48V607 M626,606v50h-50v-50H626L626,606z M675.5,655.5v-49h-49v49H675.5z M675,607h-48v48h48V607 M676,606v50h-50
	v-50H676L676,606z M125.5,605.5v-49h-49v49H125.5z M125,557H77v48h48V557 M126,556v50H76v-50H126L126,556z M175.5,605.5v-49h-49v49
	H175.5z M175,557h-48v48h48V557 M176,556v50h-50v-50H176L176,556z M325.5,605.5v-49h-49v49H325.5z M325,557h-48v48h48V557 M326,556
	v50h-50v-50H326L326,556z M375.5,605.5v-49h-49v49H375.5z M375,557h-48v48h48V557 M376,556v50h-50v-50H376L376,556z M425.5,605.5
	v-49h-49v49H425.5z M425,557h-48v48h48V557 M426,556v50h-50v-50H426L426,556z M475.5,605.5v-49h-49v49H475.5z M475,557h-48v48h48
	V557 M476,556v50h-50v-50H476L476,556z M525.5,605.5v-49h-49v49H525.5z M525,557h-48v48h48V557 M526,556v50h-50v-50H526L526,556z
	 M625.5,605.5v-49h-49v49H625.5z M625,557h-48v48h48V557 M626,556v50h-50v-50H626L626,556z M675.5,605.5v-49h-49v49H675.5z M675,557
	h-48v48h48V557 M676,556v50h-50v-50H676L676,556z M75.5,555.5v-49h-49v49H75.5z M75,507H27v48h48V507 M76,506v50H26v-50H76L76,506z
	 M225.5,555.5v-49h-49v49H225.5z M225,507h-48v48h48V507 M226,506v50h-50v-50H226L226,506z M275.5,555.5v-49h-49v49H275.5z M275,507
	h-48v48h48V507 M276,506v50h-50v-50H276L276,506z M325.5,555.5v-49h-49v49H325.5z M325,507h-48v48h48V507 M326,506v50h-50v-50H326
	L326,506z M375.5,555.5v-49h-49v49H375.5z M375,507h-48v48h48V507 M376,506v50h-50v-50H376L376,506z M475.5,555.5v-49h-49v49H475.5z
	 M475,507h-48v48h48V507 M476,506v50h-50v-50H476L476,506z M525.5,555.5v-49h-49v49H525.5z M525,507h-48v48h48V507 M526,506v50h-50
	v-50H526L526,506z M575.5,555.5v-49h-49v49H575.5z M575,507h-48v48h48V507 M576,506v50h-50v-50H576L576,506z M625.5,555.5v-49h-49
	v49H625.5z M625,507h-48v48h48V507 M626,506v50h-50v-50H626L626,506z M675.5,555.5v-49h-49v49H675.5z M675,507h-48v48h48V507
	 M676,506v50h-50v-50H676L676,506z M275.5,505.5v-49h-49v49H275.5z M275,457h-48v48h48V457 M276,456v50h-50v-50H276L276,456z
	 M375.5,505.5v-49h-49v49H375.5z M375,457h-48v48h48V457 M376,456v50h-50v-50H376L376,456z M425.5,505.5v-49h-49v49H425.5z M425,457
	h-48v48h48V457 M426,456v50h-50v-50H426L426,456z M475.5,505.5v-49h-49v49H475.5z M475,457h-48v48h48V457 M476,456v50h-50v-50H476
	L476,456z M525.5,505.5v-49h-49v49H525.5z M525,457h-48v48h48V457 M526,456v50h-50v-50H526L526,456z M575.5,505.5v-49h-49v49H575.5z
	 M575,457h-48v48h48V457 M576,456v50h-50v-50H576L576,456z M625.5,505.5v-49h-49v49H625.5z M625,457h-48v48h48V457 M626,456v50h-50
	v-50H626L626,456z M675.5,505.5v-49h-49v49H675.5z M675,457h-48v48h48V457 M676,456v50h-50v-50H676L676,456z M125.5,455.5v-49h-49
	v49H125.5z M125,407H77v48h48V407 M126,406v50H76v-50H126L126,406z M175.5,455.5v-49h-49v49H175.5z M175,407h-48v48h48V407 M176,406
	v50h-50v-50H176L176,406z M275.5,455.5v-49h-49v49H275.5z M275,407h-48v48h48V407 M276,406v50h-50v-50H276L276,406z M325.5,455.5
	v-49h-49v49H325.5z M325,407h-48v48h48V407 M326,406v50h-50v-50H326L326,406z M375.5,455.5v-49h-49v49H375.5z M375,407h-48v48h48
	V407 M376,406v50h-50v-50H376L376,406z M475.5,455.5v-49h-49v49H475.5z M475,407h-48v48h48V407 M476,406v50h-50v-50H476L476,406z
	 M525.5,455.5v-49h-49v49H525.5z M525,407h-48v48h48V407 M526,406v50h-50v-50H526L526,406z M575.5,455.5v-49h-49v49H575.5z M575,407
	h-48v48h48V407 M576,406v50h-50v-50H576L576,406z M625.5,455.5v-49h-49v49H625.5z M625,407h-48v48h48V407 M626,406v50h-50v-50H626
	L626,406z M675.5,455.5v-49h-49v49H675.5z M675,407h-48v48h48V407 M676,406v50h-50v-50H676L676,406z M175.5,405.5v-49h-49v49H175.5z
	 M175,357h-48v48h48V357 M176,356v50h-50v-50H176L176,356z M275.5,405.5v-49h-49v49H275.5z M275,357h-48v48h48V357 M276,356v50h-50
	v-50H276L276,356z M325.5,405.5v-49h-49v49H325.5z M325,357h-48v48h48V357 M326,356v50h-50v-50H326L326,356z M425.5,405.5v-49h-49
	v49H425.5z M425,357h-48v48h48V357 M426,356v50h-50v-50H426L426,356z M475.5,405.5v-49h-49v49H475.5z M475,357h-48v48h48V357
	 M476,356v50h-50v-50H476L476,356z M575.5,405.5v-49h-49v49H575.5z M575,357h-48v48h48V357 M576,356v50h-50v-50H576L576,356z
	 M625.5,405.5v-49h-49v49H625.5z M625,357h-48v48h48V357 M626,356v50h-50v-50H626L626,356z M675.5,405.5v-49h-49v49H675.5z M675,357
	h-48v48h48V357 M676,356v50h-50v-50H676L676,356z M225.5,355.5v-49h-49v49H225.5z M225,307h-48v48h48V307 M226,306v50h-50v-50H226
	L226,306z M275.5,355.5v-49h-49v49H275.5z M275,307h-48v48h48V307 M276,306v50h-50v-50H276L276,306z M375.5,355.5v-49h-49v49H375.5z
	 M375,307h-48v48h48V307 M376,306v50h-50v-50H376L376,306z M475.5,355.5v-49h-49v49H475.5z M475,307h-48v48h48V307 M476,306v50h-50
	v-50H476L476,306z M525.5,355.5v-49h-49v49H525.5z M525,307h-48v48h48V307 M526,306v50h-50v-50H526L526,306z M575.5,355.5v-49h-49
	v49H575.5z M575,307h-48v48h48V307 M576,306v50h-50v-50H576L576,306z M625.5,355.5v-49h-49v49H625.5z M625,307h-48v48h48V307
	 M626,306v50h-50v-50H626L626,306z M675.5,355.5v-49h-49v49H675.5z M675,307h-48v48h48V307 M676,306v50h-50v-50H676L676,306z
	 M125.5,305.5v-49h-49v49H125.5z M125,257H77v48h48V257 M126,256v50H76v-50H126L126,256z M375.5,305.5v-49h-49v49H375.5z M375,257
	h-48v48h48V257 M376,256v50h-50v-50H376L376,256z M425.5,305.5v-49h-49v49H425.5z M425,257h-48v48h48V257 M426,256v50h-50v-50H426
	L426,256z M475.5,305.5v-49h-49v49H475.5z M475,257h-48v48h48V257 M476,256v50h-50v-50H476L476,256z M525.5,305.5v-49h-49v49H525.5z
	 M525,257h-48v48h48V257 M526,256v50h-50v-50H526L526,256z M575.5,305.5v-49h-49v49H575.5z M575,257h-48v48h48V257 M576,256v50h-50
	v-50H576L576,256z M625.5,305.5v-49h-49v49H625.5z M625,257h-48v48h48V257 M626,256v50h-50v-50H626L626,256z M675.5,305.5v-49h-49
	v49H675.5z M675,257h-48v48h48V257 M676,256v50h-50v-50H676L676,256z M275.5,255.5v-49h-49v49H275.5z M275,207h-48v48h48V207
	 M276,206v50h-50v-50H276L276,206z M375.5,255.5v-49h-49v49H375.5z M375,207h-48v48h48V207 M376,206v50h-50v-50H376L376,206z
	 M425.5,255.5v-49h-49v49H425.5z M425,207h-48v48h48V207 M426,206v50h-50v-50H426L426,206z M525.5,255.5v-49h-49v49H525.5z M525,207
	h-48v48h48V207 M526,206v50h-50v-50H526L526,206z M575.5,255.5v-49h-49v49H575.5z M575,207h-48v48h48V207 M576,206v50h-50v-50H576
	L576,206z M625.5,255.5v-49h-49v49H625.5z M625,207h-48v48h48V207 M626,206v50h-50v-50H626L626,206z M675.5,255.5v-49h-49v49H675.5z
	 M675,207h-48v48h48V207 M676,206v50h-50v-50H676L676,206z M175.5,205.5v-49h-49v49H175.5z M175,157h-48v48h48V157 M176,156v50h-50
	v-50H176L176,156z M325.5,205.5v-49h-49v49H325.5z M325,157h-48v48h48V157 M326,156v50h-50v-50H326L326,156z M425.5,205.5v-49h-49
	v49H425.5z M425,157h-48v48h48V157 M426,156v50h-50v-50H426L426,156z M475.5,205.5v-49h-49v49H475.5z M475,157h-48v48h48V157
	 M476,156v50h-50v-50H476L476,156z M575.5,205.5v-49h-49v49H575.5z M575,157h-48v48h48V157 M576,156v50h-50v-50H576L576,156z
	 M625.5,205.5v-49h-49v49H625.5z M625,157h-48v48h48V157 M626,156v50h-50v-50H626L626,156z M675.5,205.5v-49h-49v49H675.5z M675,157
	h-48v48h48V157 M676,156v50h-50v-50H676L676,156z M75.5,155.5v-49h-49v49H75.5z M75,107H27v48h48V107 M76,106v50H26v-50H76L76,106z
	 M475.5,155.5v-49h-49v49H475.5z M475,107h-48v48h48V107 M476,106v50h-50v-50H476L476,106z M625.5,155.5v-49h-49v49H625.5z M625,107
	h-48v48h48V107 M626,106v50h-50v-50H626L626,106z M675.5,155.5v-49h-49v49H675.5z M675,107h-48v48h48V107 M676,106v50h-50v-50H676
	L676,106z M225.5,105.5v-49h-49v49H225.5z M225,57h-48v48h48V57 M226,56v50h-50V56H226L226,56z M375.5,105.5v-49h-49v49H375.5z
	 M375,57h-48v48h48V57 M376,56v50h-50V56H376L376,56z M425.5,105.5v-49h-49v49H425.5z M425,57h-48v48h48V57 M426,56v50h-50V56H426
	L426,56z M475.5,105.5v-49h-49v49H475.5z M475,57h-48v48h48V57 M476,56v50h-50V56H476L476,56z M575.5,105.5v-49h-49v49H575.5z
	 M575,57h-48v48h48V57 M576,56v50h-50V56H576L576,56z M625.5,105.5v-49h-49v49H625.5z M625,57h-48v48h48V57 M626,56v50h-50V56H626
	L626,56z M675.5,105.5v-49h-49v49H675.5z M675,57h-48v48h48V57 M676,56v50h-50V56H676L676,56z M325.49,55.5v-49h-49.98v49H325.49z
	 M324.98,7h-48.96v48h48.96V7 M326,6v50h-51V6H326L326,6z M425.5,55.5v-49h-49v49H425.5z M425,7h-48v48h48V7 M426,6v50h-50V6H426
	L426,6z M625.5,55.5v-49h-49v49H625.5z M625,7h-48v48h48V7 M626,6v50h-50V6H626L626,6z M675.5,55.5v-49h-49v49H675.5z M675,7h-48v48
	h48V7 M676,6v50h-50V6H676L676,6z"/>
</svg>
